<svg height="115" width="116" xmlns="http://www.w3.org/2000/svg">
<circle cx="50.2575" cy="93.6418" r="1"/>
<circle cx="76.6206" cy="19.9298" r="1"/>
<circle cx="50.3076" cy="98.5431" r="1"/>
<circle cx="29.9367" cy="9.10301" r="1"/>
<circle cx="84.2527" cy="53.4094" r="1"/>
<circle cx="14.0147" cy="48.2918" r="1"/>
<circle cx="83.0348" cy="76.0771" r="1"/>
<circle cx="70.1418" cy="93.9991" r="1"/>
<circle cx="5.04748" cy="42.1343" r="1"/>
<circle cx="78.4085" cy="38.3933" r="1"/>
<circle cx="24.9319" cy="14.2574" r="1"/>
<circle cx="92.1233" cy="61.5816" r="1"/>
<circle cx="74.9658" cy="15.7835" r="1"/>
<circle cx="19.0673" cy="27.8458" r="1"/>
<circle cx="72.5929" cy="10.0423" r="1"/>
<circle cx="16.5935" cy="72.4318" r="1"/>
<circle cx="57.0479" cy="48.5661" r="1"/>
<circle cx="92.224" cy="68.8146" r="1"/>
<circle cx="16.2068" cy="39.3233" r="1"/>
<circle cx="69.808" cy="88.5462" r="1"/>
<circle cx="44.2343" cy="98.5212" r="1"/>
<circle cx="30.3336" cy="25.1304" r="1"/>
<circle cx="7.66532" cy="49.7126" r="1"/>
<circle cx="0.471125" cy="51.7544" r="1"/>
<circle cx="13.4592" cy="81.2129" r="1"/>
<circle cx="54.1403" cy="13.2649" r="1"/>
<circle cx="39.8893" cy="85.3814" r="1"/>
<circle cx="31.419" cy="19.7798" r="1"/>
<circle cx="79.9528" cy="66.418" r="1"/>
<circle cx="30.3076" cy="4.738" r="1"/>
<circle cx="20.3774" cy="40.631" r="1"/>
<circle cx="21.0334" cy="87.3763" r="1"/>
<circle cx="45.2342" cy="44.6133" r="1"/>
<circle cx="82.1144" cy="58.272" r="1"/>
<circle cx="55" cy="50" r="1"/>
<circle cx="96.6006" cy="63.4226" r="1"/>
<circle cx="34.5869" cy="14.8542" r="1"/>
<circle cx="84.1106" cy="70.5042" r="1"/>
<circle cx="17.5254" cy="85.05" r="1"/>
<circle cx="11.5987" cy="37.7794" r="1"/>
<circle cx="87.0705" cy="65.6981" r="1"/>
<circle cx="12.1786" cy="63.6982" r="1"/>
<circle cx="82.1493" cy="47.8767" r="1"/>
<circle cx="68.6983" cy="8.59676" r="1"/>
<circle cx="27.3855" cy="28.381" r="1"/>
<circle cx="75.8168" cy="69.5441" r="1"/>
<circle cx="45.2824" cy="17.9442" r="1"/>
<circle cx="12.875" cy="33.0293" r="1"/>
<circle cx="13.8122" cy="22.7576" r="1"/>
<circle cx="22.3997" cy="69.1096" r="1"/>
<circle cx="11.5758" cy="70.2875" r="1"/>
<circle cx="47.892" cy="5.99543" r="1"/>
<circle cx="91.0606" cy="27.6108" r="1"/>
<circle cx="94.5383" cy="58.1138" r="1"/>
<circle cx="71.2366" cy="4.93257" r="1"/>
<circle cx="41.6995" cy="14.2023" r="1"/>
<circle cx="50.9886" cy="80.9121" r="1"/>
<circle cx="68.6227" cy="25.1117" r="1"/>
<circle cx="74.8854" cy="79.0914" r="1"/>
<circle cx="32.5131" cy="85.9977" r="1"/>
<circle cx="16.3513" cy="66.1664" r="1"/>
<circle cx="97.0856" cy="44.2235" r="1"/>
<circle cx="25.5615" cy="90.1311" r="1"/>
<circle cx="11.0186" cy="51.9048" r="1"/>
<circle cx="6.48369" cy="38.3312" r="1"/>
<circle cx="11.4193" cy="58.5626" r="1"/>
<circle cx="47.7179" cy="56.8206" r="1"/>
<circle cx="73.6978" cy="87.2943" r="1"/>
<circle cx="55.4433" cy="83.7437" r="1"/>
<circle cx="53.8516" cy="90.135" r="1"/>
<circle cx="43.9862" cy="1.22089" r="1"/>
<circle cx="83.0515" cy="40.533" r="1"/>
<circle cx="65.65" cy="93.1806" r="1"/>
<circle cx="45.7385" cy="12.0013" r="1"/>
<circle cx="92.4866" cy="33.2447" r="1"/>
<circle cx="9.70293" cy="44.1669" r="1"/>
<circle cx="54.2393" cy="97.0855" r="1"/>
<circle cx="87.1316" cy="26.2287" r="1"/>
<circle cx="0.752459" cy="42.1432" r="1"/>
<circle cx="14.0745" cy="43.7088" r="1"/>
<circle cx="64.1822" cy="85.7743" r="1"/>
<circle cx="88.6853" cy="71.0394" r="1"/>
<circle cx="28.1107" cy="78.0952" r="1"/>
<circle cx="64.9732" cy="4.58527" r="1"/>
<circle cx="4.1658" cy="34.0826" r="1"/>
<circle cx="61.3913" cy="92.8172" r="1"/>
<circle cx="29.7646" cy="83.0543" r="1"/>
<circle cx="91.3153" cy="42.1862" r="1"/>
<circle cx="10.0826" cy="27.0821" r="1"/>
<circle cx="24.5736" cy="80.5413" r="1"/>
<circle cx="20.2968" cy="18.7129" r="1"/>
<circle cx="23.1267" cy="29.8246" r="1"/>
<circle cx="90.8669" cy="78.1432" r="1"/>
<circle cx="89.2495" cy="46.7438" r="1"/>
<circle cx="81.9813" cy="29.5241" r="1"/>
<circle cx="26.7484" cy="71.7828" r="1"/>
<circle cx="90.9063" cy="37.8902" r="1"/>
<circle cx="72.3081" cy="27.0738" r="1"/>
<circle cx="68.1519" cy="79.3074" r="1"/>
<circle cx="7.53975" cy="68.8461" r="1"/>
<circle cx="54.7654" cy="7.19781" r="1"/>
<circle cx="45.2342" cy="55.3867" r="1"/>
<circle cx="1.91589" cy="63.057" r="1"/>
<circle cx="33.0832" cy="75.4549" r="1"/>
<circle cx="47.5" cy="45.6699" r="1"/>
<circle cx="49.1309" cy="86.739" r="1"/>
<circle cx="77.4198" cy="11.2449" r="1"/>
<circle cx="83.4526" cy="21.7872" r="1"/>
<circle cx="63.475" cy="80.679" r="1"/>
<circle cx="52.5651" cy="0.142179" r="1"/>
<circle cx="72.1578" cy="75.3666" r="1"/>
<circle cx="53.5603" cy="18.087" r="1"/>
<circle cx="25.1838" cy="20.4899" r="1"/>
<circle cx="87.1113" cy="31.774" r="1"/>
<circle cx="98.5074" cy="48.4537" r="1"/>
<circle cx="40.894" cy="8.14549" r="1"/>
<circle cx="17.6902" cy="32.0643" r="1"/>
<circle cx="35.2367" cy="89.6318" r="1"/>
<circle cx="57.0479" cy="51.4339" r="1"/>
<circle cx="19.2201" cy="76.987" r="1"/>
<circle cx="78.5572" cy="84.8152" r="1"/>
<circle cx="84.691" cy="80.6244" r="1"/>
<circle cx="35.4023" cy="8.2851" r="1"/>
<circle cx="97.5376" cy="38.2043" r="1"/>
<circle cx="86.4963" cy="36.3644" r="1"/>
<circle cx="80.3796" cy="16.9172" r="1"/>
<circle cx="75.8935" cy="24.4521" r="1"/>
<circle cx="57.8477" cy="3.8945" r="1"/>
<circle cx="19.0241" cy="49.6129" r="1"/>
<circle cx="77.1928" cy="91.6916" r="1"/>
<circle cx="69.9173" cy="84.2595" r="1"/>
<circle cx="85.0175" cy="61.1425" r="1"/>
<circle cx="66.0121" cy="14.7746" r="1"/>
<circle cx="35.312" cy="80.5975" r="1"/>
<circle cx="65.6234" cy="75.7202" r="1"/>
<circle cx="44.9072" cy="94.0216" r="1"/>
<circle cx="3.48732" cy="47.7901" r="1"/>
<circle cx="93.4713" cy="52.4316" r="1"/>
<circle cx="28.406" cy="94.893" r="1"/>
<circle cx="47.5" cy="54.3301" r="1"/>
<circle cx="47.7179" cy="43.1794" r="1"/>
<circle cx="7.50739" cy="75.6231" r="1"/>
<circle cx="6.40846" cy="56.7185" r="1"/>
<circle cx="43.3272" cy="81.5908" r="1"/>
<circle cx="75.8611" cy="33.5434" r="1"/>
<circle cx="15.7313" cy="56.4181" r="1"/>
<circle cx="50" cy="50" r="1"/>
<circle cx="67.7301" cy="20.5935" r="1"/>
<circle cx="61.2787" cy="11.5772" r="1"/>
<circle cx="77.4645" cy="29.0974" r="1"/>
<line stroke="black" stroke-width="0.5" x1="57.0479" x2="55" y1="48.5661" y2="50"/>
<line stroke="black" stroke-width="0.5" x1="55" x2="57.0479" y1="50" y2="51.4339"/>
<line stroke="black" stroke-width="0.5" x1="47.5" x2="47.7179" y1="45.6699" y2="43.1794"/>
<line stroke="black" stroke-width="0.5" x1="47.5" x2="47.7179" y1="54.3301" y2="56.8206"/>
<line stroke="black" stroke-width="0.5" x1="47.5" x2="45.2342" y1="45.6699" y2="44.6133"/>
<line stroke="black" stroke-width="0.5" x1="47.5" x2="45.2342" y1="54.3301" y2="55.3867"/>
<line stroke="black" stroke-width="0.5" x1="47.5" x2="50" y1="45.6699" y2="50"/>
<line stroke="black" stroke-width="0.5" x1="47.5" x2="50" y1="54.3301" y2="50"/>
<line stroke="black" stroke-width="0.5" x1="55" x2="50" y1="50" y2="50"/>
</svg>