<svg height="115" width="116" xmlns="http://www.w3.org/2000/svg">
<circle cx="38.591" cy="55.302" r="1"/>
<circle cx="46.1013" cy="58.2119" r="1"/>
<circle cx="72.5003" cy="23.7944" r="1"/>
<circle cx="26.8522" cy="33.9012" r="1"/>
<circle cx="12.9588" cy="78.7242" r="1"/>
<circle cx="21.9699" cy="16.6441" r="1"/>
<circle cx="86.1947" cy="71.3678" r="1"/>
<circle cx="5.82146" cy="70.1934" r="1"/>
<circle cx="67.0546" cy="50.1232" r="1"/>
<circle cx="34.88" cy="95.2856" r="1"/>
<circle cx="60.0376" cy="82.1177" r="1"/>
<circle cx="62.9452" cy="13.2896" r="1"/>
<circle cx="48.2011" cy="52.4304" r="1"/>
<circle cx="94.1504" cy="65.5095" r="1"/>
<circle cx="78.0354" cy="86.2366" r="1"/>
<circle cx="72.0502" cy="70.2093" r="1"/>
<circle cx="63.5433" cy="63.9071" r="1"/>
<circle cx="79.0009" cy="16.9567" r="1"/>
<circle cx="87.5943" cy="42.4576" r="1"/>
<circle cx="36.7789" cy="44.1748" r="1"/>
<circle cx="56.1014" cy="76.9497" r="1"/>
<circle cx="27.0254" cy="43.361" r="1"/>
<circle cx="90.0202" cy="31.9555" r="1"/>
<circle cx="33.2739" cy="63.7823" r="1"/>
<circle cx="39.3681" cy="12.5417" r="1"/>
<circle cx="30.2353" cy="77.9378" r="1"/>
<circle cx="54.8617" cy="49.6225" r="1"/>
<circle cx="46.8684" cy="41.002" r="1"/>
<circle cx="28.2883" cy="22.0824" r="1"/>
<circle cx="51.367" cy="29.3394" r="1"/>
<circle cx="79.1883" cy="58.8679" r="1"/>
<circle cx="4.96818" cy="52.6311" r="1"/>
<circle cx="69.845" cy="64.0265" r="1"/>
<circle cx="70.3496" cy="15.3098" r="1"/>
<circle cx="61.017" cy="55.1973" r="1"/>
<circle cx="55.0559" cy="58.5976" r="1"/>
<circle cx="78.2288" cy="49.7053" r="1"/>
<circle cx="61.4396" cy="44.5818" r="1"/>
<circle cx="14.1037" cy="52.5343" r="1"/>
<circle cx="64.99" cy="37.9255" r="1"/>
<circle cx="70.0866" cy="43.123" r="1"/>
<circle cx="24.1382" cy="57.747" r="1"/>
<circle cx="87.2432" cy="55.366" r="1"/>
<circle cx="81.3508" cy="79.3442" r="1"/>
<circle cx="48.1945" cy="97.2541" r="1"/>
<circle cx="74.1303" cy="81.1307" r="1"/>
<circle cx="42.2609" cy="27.3679" r="1"/>
<circle cx="99.047" cy="58.1972" r="1"/>
<circle cx="30.715" cy="28.0339" r="1"/>
<circle cx="54.3872" cy="68.2188" r="1"/>
<circle cx="24.8283" cy="88.5775" r="1"/>
<circle cx="43.5268" cy="47.9319" r="1"/>
<circle cx="31.8631" cy="89.0662" r="1"/>
<circle cx="79.328" cy="24.4347" r="1"/>
<circle cx="1.20965" cy="59.128" r="1"/>
<circle cx="12.8848" cy="65.2499" r="1"/>
<circle cx="54.1116" cy="11.5847" r="1"/>
<circle cx="52.4173" cy="81.9989" r="1"/>
<circle cx="69.2017" cy="32.8606" r="1"/>
<circle cx="54.3861" cy="37.0487" r="1"/>
<circle cx="84.5358" cy="64.3491" r="1"/>
<circle cx="19.8267" cy="36.7959" r="1"/>
<circle cx="24.0575" cy="76.7484" r="1"/>
<circle cx="66.2431" cy="85.403" r="1"/>
<circle cx="14.412" cy="43.9175" r="1"/>
<circle cx="32.2886" cy="8.79765" r="1"/>
<circle cx="35.8276" cy="31.4307" r="1"/>
<circle cx="40.5481" cy="65.63" r="1"/>
<circle cx="35.9134" cy="24.2858" r="1"/>
<circle cx="79.2301" cy="70.9432" r="1"/>
<circle cx="42.9439" cy="4.73938" r="1"/>
<circle cx="77.446" cy="40.4127" r="1"/>
<circle cx="20.532" cy="83.9281" r="1"/>
<circle cx="89.4315" cy="77.421" r="1"/>
<circle cx="43.5027" cy="72.1161" r="1"/>
<circle cx="20.4527" cy="51.6607" r="1"/>
<circle cx="30.3507" cy="57.6926" r="1"/>
<circle cx="16.936" cy="25.7642" r="1"/>
<circle cx="48.489" cy="66.2309" r="1"/>
<circle cx="66.6067" cy="74.7673" r="1"/>
<circle cx="58.4272" cy="24.1571" r="1"/>
<circle cx="45.7653" cy="19.2166" r="1"/>
<circle cx="51.0587" cy="22.6656" r="1"/>
<circle cx="37.2555" cy="84.1068" r="1"/>
<circle cx="48.376" cy="8.54162" r="1"/>
<circle cx="94.3543" cy="47.7519" r="1"/>
<circle cx="76.6026" cy="32.6663" r="1"/>
<circle cx="65.3391" cy="23.3756" r="1"/>
<circle cx="66.5252" cy="58.0488" r="1"/>
<circle cx="10.1649" cy="29.5303" r="1"/>
<circle cx="42.8706" cy="87.8252" r="1"/>
<circle cx="73.9845" cy="55.4869" r="1"/>
<circle cx="27.0385" cy="66.1529" r="1"/>
<circle cx="10.0326" cy="39.4883" r="1"/>
<circle cx="50.1136" cy="89.432" r="1"/>
<circle cx="2.1393" cy="42.2634" r="1"/>
<circle cx="92.0844" cy="24.4484" r="1"/>
<circle cx="19.8937" cy="71.469" r="1"/>
<circle cx="31.4631" cy="49.6571" r="1"/>
<circle cx="50.1948" cy="1.6494" r="1"/>
<circle cx="41.6504" cy="96.8398" r="1"/>
<circle cx="95.0362" cy="38.0353" r="1"/>
<circle cx="8.15964" cy="61.5397" r="1"/>
<circle cx="36.5751" cy="76.3727" r="1"/>
<circle cx="57.208" cy="16.7862" r="1"/>
<circle cx="85.5381" cy="25.7035" r="1"/>
<circle cx="70.9874" cy="4.92865" r="1"/>
<circle cx="54.9553" cy="5.31744" r="1"/>
<circle cx="56.5803" cy="91.0244" r="1"/>
<circle cx="15.1691" cy="58.4473" r="1"/>
<circle cx="84.7966" cy="36.5384" r="1"/>
<circle cx="38.5258" cy="36.816" r="1"/>
<circle cx="31.8412" cy="39.0859" r="1"/>
<circle cx="33.6071" cy="15.2305" r="1"/>
<circle cx="25.1317" cy="11.5071" r="1"/>
<circle cx="77.4119" cy="9.80363" r="1"/>
<circle cx="21.0238" cy="63.7365" r="1"/>
<circle cx="59.6637" cy="31.5314" r="1"/>
<circle cx="64.0446" cy="7.33994" r="1"/>
<circle cx="76.5229" cy="65.4925" r="1"/>
<circle cx="59.8201" cy="98.3891" r="1"/>
<circle cx="4.32645" cy="34.2075" r="1"/>
<circle cx="15.3199" cy="15.7999" r="1"/>
<circle cx="61.5448" cy="70.331" r="1"/>
<circle cx="33.753" cy="70.9485" r="1"/>
<circle cx="70.8089" cy="91.1162" r="1"/>
<circle cx="0.123388" cy="48.1975" r="1"/>
<circle cx="22.9471" cy="28.1418" r="1"/>
<circle cx="34.8553" cy="2.48959" r="1"/>
<circle cx="45.1017" cy="34.6544" r="1"/>
<circle cx="8.51362" cy="47.1855" r="1"/>
<circle cx="48.9262" cy="74.8669" r="1"/>
<circle cx="52.7481" cy="43.9056" r="1"/>
<circle cx="86.2288" cy="82.8974" r="1"/>
<circle cx="11.5627" cy="72.1524" r="1"/>
<circle cx="84.7398" cy="18.9305" r="1"/>
<circle cx="44.9087" cy="81.152" r="1"/>
<circle cx="38.6413" cy="18.5308" r="1"/>
<circle cx="84.7066" cy="48.2218" r="1"/>
<circle cx="2.94931" cy="64.905" r="1"/>
<circle cx="10.9511" cy="21.1563" r="1"/>
<circle cx="91.3712" cy="60.115" r="1"/>
<circle cx="67.336" cy="96.4607" r="1"/>
<circle cx="99.3665" cy="42.8179" r="1"/>
<circle cx="20.9603" cy="43.8664" r="1"/>
<circle cx="99.524" cy="51.926" r="1"/>
<circle cx="59.9531" cy="1.37399" r="1"/>
<circle cx="92.9393" cy="72.3926" r="1"/>
<circle cx="62.7973" cy="90.5221" r="1"/>
<circle cx="93.7059" cy="54.0921" r="1"/>
<line stroke="black" stroke-width="0.5" x1="91.3712" x2="94.1504" y1="60.115" y2="65.5095"/>
<line stroke="black" stroke-width="0.5" x1="93.7059" x2="99.524" y1="54.0921" y2="51.926"/>
<line stroke="black" stroke-width="0.5" x1="99.524" x2="99.047" y1="51.926" y2="58.1972"/>
<line stroke="black" stroke-width="0.5" x1="91.3712" x2="87.2432" y1="60.115" y2="55.366"/>
<line stroke="black" stroke-width="0.5" x1="93.7059" x2="94.3543" y1="54.0921" y2="47.7519"/>
<line stroke="black" stroke-width="0.5" x1="84.7066" x2="87.5943" y1="48.2218" y2="42.4576"/>
<line stroke="black" stroke-width="0.5" x1="93.7059" x2="91.3712" y1="54.0921" y2="60.115"/>
<line stroke="black" stroke-width="0.5" x1="84.7066" x2="78.2288" y1="48.2218" y2="49.7053"/>
<line stroke="black" stroke-width="0.5" x1="84.7066" x2="87.2432" y1="48.2218" y2="55.366"/>
</svg>