<?xml version="1.0" encoding="utf-8"?>
<svg width="116" height="115">
 <g transform="translate(8.57456, 8.43995)">
  <circle cx="50" cy="50" r="1" style="fill:black;" />
  <circle cx="55" cy="50" r="1" style="fill:black;" />
  <circle cx="57.0479" cy="51.4339" r="1" style="fill:black;" />
  <circle cx="57.0479" cy="48.5661" r="1" style="fill:black;" />
  <circle cx="47.5" cy="54.3301" r="1" style="fill:black;" />
  <circle cx="45.2342" cy="55.3867" r="1" style="fill:black;" />
  <circle cx="47.7179" cy="56.8206" r="1" style="fill:black;" />
  <circle cx="47.5" cy="45.6699" r="1" style="fill:black;" />
  <circle cx="47.7179" cy="43.1794" r="1" style="fill:black;" />
  <circle cx="45.2342" cy="44.6133" r="1" style="fill:black;" />
  <circle cx="92.4825" cy="54.595" r="1" style="fill:black;" />
  <circle cx="63.9952" cy="6.91108" r="1" style="fill:black;" />
  <circle cx="91.8168" cy="58.2268" r="1" style="fill:black;" />
  <circle cx="73.0703" cy="18.4338" r="1" style="fill:black;" />
  <circle cx="75.171" cy="21.9408" r="1" style="fill:black;" />
  <circle cx="83.8736" cy="86.079" r="1" style="fill:black;" />
  <circle cx="83.193" cy="19.1775" r="1" style="fill:black;" />
  <circle cx="53.7995" cy="10.819" r="1" style="fill:black;" />
  <circle cx="40.5013" cy="84.9415" r="1" style="fill:black;" />
  <circle cx="23.8522" cy="32.8635" r="1" style="fill:black;" />
  <circle cx="16.6091" cy="32.6679" r="1" style="fill:black;" />
  <circle cx="96.2521" cy="34.4328" r="1" style="fill:black;" />
  <circle cx="12.4816" cy="39.6869" r="1" style="fill:black;" />
  <circle cx="90.6526" cy="51.0133" r="1" style="fill:black;" />
  <circle cx="93.7284" cy="43.6031" r="1" style="fill:black;" />
  <circle cx="10.1476" cy="66.7634" r="1" style="fill:black;" />
  <circle cx="16.5397" cy="72.8218" r="1" style="fill:black;" />
  <circle cx="72.1936" cy="81.831" r="1" style="fill:black;" />
  <circle cx="83.4732" cy="14.6748" r="1" style="fill:black;" />
  <circle cx="9.7791" cy="23.8095" r="1" style="fill:black;" />
  <circle cx="32.2825" cy="74.4769" r="1" style="fill:black;" />
  <circle cx="88.2399" cy="45.6114" r="1" style="fill:black;" />
  <circle cx="77.8968" cy="38.6017" r="1" style="fill:black;" />
  <circle cx="75.5339" cy="75.5044" r="1" style="fill:black;" />
  <circle cx="58.7777" cy="96.4267" r="1" style="fill:black;" />
  <circle cx="23.5963" cy="28.0987" r="1" style="fill:black;" />
  <circle cx="80.233" cy="21.9563" r="1" style="fill:black;" />
  <circle cx="32.8099" cy="85.1906" r="1" style="fill:black;" />
  <circle cx="15.6058" cy="40.2322" r="1" style="fill:black;" />
  <circle cx="84.3343" cy="25.7202" r="1" style="fill:black;" />
  <circle cx="61.385" cy="17.9009" r="1" style="fill:black;" />
  <circle cx="68.6683" cy="79.0708" r="1" style="fill:black;" />
  <circle cx="17.5682" cy="75.4961" r="1" style="fill:black;" />
  <circle cx="20.2902" cy="42.392" r="1" style="fill:black;" />
  <circle cx="76.5176" cy="11.5756" r="1" style="fill:black;" />
  <circle cx="90.2576" cy="68.9018" r="1" style="fill:black;" />
  <circle cx="59.4535" cy="85.9153" r="1" style="fill:black;" />
  <circle cx="11.681" cy="66.844" r="1" style="fill:black;" />
  <circle cx="35.5051" cy="96.3449" r="1" style="fill:black;" />
  <circle cx="16.4981" cy="40.0098" r="1" style="fill:black;" />
  <circle cx="35.0156" cy="90.3566" r="1" style="fill:black;" />
  <circle cx="70.8128" cy="24.2737" r="1" style="fill:black;" />
  <circle cx="30.1678" cy="5.54136" r="1" style="fill:black;" />
  <circle cx="20.4832" cy="56.5891" r="1" style="fill:black;" />
  <circle cx="6.61757" cy="38.6878" r="1" style="fill:black;" />
  <circle cx="68.9242" cy="5.95684" r="1" style="fill:black;" />
  <circle cx="18.3699" cy="44.1442" r="1" style="fill:black;" />
  <circle cx="15.0279" cy="40.795" r="1" style="fill:black;" />
  <circle cx="25.6005" cy="30.9136" r="1" style="fill:black;" />
  <circle cx="82.7178" cy="16.3015" r="1" style="fill:black;" />
  <circle cx="81.8481" cy="41.9858" r="1" style="fill:black;" />
  <circle cx="74.2542" cy="77.1278" r="1" style="fill:black;" />
  <circle cx="56.4178" cy="84.1923" r="1" style="fill:black;" />
  <circle cx="93.3508" cy="62.5306" r="1" style="fill:black;" />
  <circle cx="86.7391" cy="72.4105" r="1" style="fill:black;" />
  <circle cx="54.6492" cy="19.0409" r="1" style="fill:black;" />
  <circle cx="69.3345" cy="87.508" r="1" style="fill:black;" />
  <circle cx="74.7277" cy="67.2152" r="1" style="fill:black;" />
  <circle cx="87.0624" cy="19.2458" r="1" style="fill:black;" />
  <circle cx="94.174" cy="43.4644" r="1" style="fill:black;" />
  <circle cx="71.56" cy="8.15978" r="1" style="fill:black;" />
  <circle cx="83.0352" cy="66.3415" r="1" style="fill:black;" />
  <circle cx="19.0272" cy="18.038" r="1" style="fill:black;" />
  <circle cx="45.8267" cy="2.9215" r="1" style="fill:black;" />
  <circle cx="40.7203" cy="10.8395" r="1" style="fill:black;" />
  <circle cx="65.1429" cy="79.0397" r="1" style="fill:black;" />
  <circle cx="84.2348" cy="42.1543" r="1" style="fill:black;" />
  <circle cx="16.737" cy="75.3984" r="1" style="fill:black;" />
  <circle cx="56.954" cy="8.42704" r="1" style="fill:black;" />
  <circle cx="5.74834" cy="38.1592" r="1" style="fill:black;" />
  <circle cx="77.5004" cy="33.5003" r="1" style="fill:black;" />
  <circle cx="11.3439" cy="21.8746" r="1" style="fill:black;" />
  <circle cx="90.7829" cy="59.1284" r="1" style="fill:black;" />
  <circle cx="1.42544" cy="55.8471" r="1" style="fill:black;" />
  <circle cx="34.0923" cy="7.96071" r="1" style="fill:black;" />
  <circle cx="82.6678" cy="72.2784" r="1" style="fill:black;" />
  <circle cx="81.785" cy="86.6153" r="1" style="fill:black;" />
  <circle cx="10.5347" cy="77.6659" r="1" style="fill:black;" />
  <circle cx="91.6424" cy="59.2975" r="1" style="fill:black;" />
  <circle cx="82.8896" cy="31.7588" r="1" style="fill:black;" />
  <circle cx="63.5285" cy="11.7235" r="1" style="fill:black;" />
  <circle cx="37.2605" cy="2.49911" r="1" style="fill:black;" />
  <circle cx="18.4616" cy="71.2147" r="1" style="fill:black;" />
  <circle cx="21.0957" cy="34.344" r="1" style="fill:black;" />
  <circle cx="38.5353" cy="94.1603" r="1" style="fill:black;" />
  <circle cx="22.1534" cy="29.7298" r="1" style="fill:black;" />
  <circle cx="35.9543" cy="93.5451" r="1" style="fill:black;" />
  <circle cx="4.71988" cy="51.0723" r="1" style="fill:black;" />
  <circle cx="89.9651" cy="43.7249" r="1" style="fill:black;" />
  <circle cx="65.5414" cy="78.7278" r="1" style="fill:black;" />
  <circle cx="23.1105" cy="20.1761" r="1" style="fill:black;" />
  <circle cx="29.8787" cy="25.8038" r="1" style="fill:black;" />
  <circle cx="96.719" cy="35.4081" r="1" style="fill:black;" />
  <circle cx="56.8253" cy="83.7631" r="1" style="fill:black;" />
  <circle cx="29.526" cy="80.2674" r="1" style="fill:black;" />
  <circle cx="69.3033" cy="11.9731" r="1" style="fill:black;" />
  <circle cx="72.1956" cy="26.2" r="1" style="fill:black;" />
  <circle cx="55.6101" cy="12.1977" r="1" style="fill:black;" />
  <circle cx="55.1157" cy="81.2326" r="1" style="fill:black;" />
  <circle cx="88.2301" cy="17.7936" r="1" style="fill:black;" />
  <circle cx="74.7267" cy="9.04629" r="1" style="fill:black;" />
  <circle cx="87.0279" cy="33.8447" r="1" style="fill:black;" />
  <circle cx="5.33656" cy="60.3484" r="1" style="fill:black;" />
  <circle cx="2.55868" cy="42.5888" r="1" style="fill:black;" />
  <circle cx="4.81595" cy="42.9755" r="1" style="fill:black;" />
  <circle cx="50.2254" cy="86.9978" r="1" style="fill:black;" />
  <circle cx="69.4688" cy="77.4317" r="1" style="fill:black;" />
  <circle cx="78.4125" cy="66.2554" r="1" style="fill:black;" />
  <circle cx="29.4082" cy="20.8342" r="1" style="fill:black;" />
  <circle cx="6.31063" cy="54.5306" r="1" style="fill:black;" />
  <circle cx="9.68404" cy="21.1211" r="1" style="fill:black;" />
  <circle cx="82.1405" cy="28.8284" r="1" style="fill:black;" />
  <circle cx="37.7664" cy="4.2122" r="1" style="fill:black;" />
  <circle cx="54.4697" cy="15.9978" r="1" style="fill:black;" />
  <circle cx="40.0377" cy="9.16399" r="1" style="fill:black;" />
  <circle cx="79.2713" cy="16.7648" r="1" style="fill:black;" />
  <circle cx="32.191" cy="18.8835" r="1" style="fill:black;" />
  <circle cx="90.2813" cy="27.7351" r="1" style="fill:black;" />
  <circle cx="80.565" cy="45.8534" r="1" style="fill:black;" />
  <circle cx="26.5799" cy="28.861" r="1" style="fill:black;" />
  <circle cx="44.6156" cy="13.5716" r="1" style="fill:black;" />
  <circle cx="33.9366" cy="95.3182" r="1" style="fill:black;" />
  <circle cx="19.8705" cy="26.0628" r="1" style="fill:black;" />
  <circle cx="41.469" cy="13.9554" r="1" style="fill:black;" />
  <circle cx="58.4457" cy="96.0932" r="1" style="fill:black;" />
  <circle cx="8.07943" cy="69.859" r="1" style="fill:black;" />
  <circle cx="58.5537" cy="3.13057" r="1" style="fill:black;" />
  <circle cx="63.0985" cy="83.5316" r="1" style="fill:black;" />
  <circle cx="89.4575" cy="37.8332" r="1" style="fill:black;" />
  <circle cx="88.2315" cy="24.0157" r="1" style="fill:black;" />
  <circle cx="81.1774" cy="71.0791" r="1" style="fill:black;" />
  <circle cx="18.1031" cy="46.6884" r="1" style="fill:black;" />
  <circle cx="20.7119" cy="67.8607" r="1" style="fill:black;" />
  <circle cx="20.0641" cy="81.6138" r="1" style="fill:black;" />
  <circle cx="52.2946" cy="83.6001" r="1" style="fill:black;" />
  <circle cx="32.7527" cy="6.91124" r="1" style="fill:black;" />
  <circle cx="53.092" cy="1.56005" r="1" style="fill:black;" />
  <circle cx="64.4352" cy="82.1172" r="1" style="fill:black;" />
  <circle cx="27.0756" cy="10.9074" r="1" style="fill:black;" />
  <circle cx="80.7491" cy="28.7178" r="1" style="fill:black;" />
 </g>
</svg>
